ll The Episodes of Detective Conan (Season 3) aka "Case Closed" (Ep 55-82) at 480p Video Quality :)

Please seed after you download.

--------------------------------------------------------------------------------

Cover
--------------------------------------------------------------------------------
           
http://img7.imageshack.us/img7/4091/detectiveconancursator.jpg
--------------------------------------------------------------------------------

Info
---------------------------------------------------------------------------------

Torrent Statistics
-------------------
  
http://torrent-stats.info/d48b/1b0360ce7.png

---------------------------------------------------------------------------------

General
--------

Format                                   : MPEG-4
Format profile                           : Base Media
Codec ID                                 : isom
File size                                : 39.4 MiB
Duration                                 : 24mn 39s
Overall bit rate mode                    : Variable
Overall bit rate                         : 223 Kbps
Writing application                      : Lavf52.61.0


Video
---------------------------------------

ID                                       : 1
Format                                   : AVC
Format/Info                              : Advanced Video Codec
Format profile                           : High@L3.0
Format settings, CABAC                   : Yes
Format settings, ReFrames                : 5 frames
Codec ID                                 : avc1
Codec ID/Info                            : Advanced Video Coding
Duration                                 : 24mn 39s
Bit rate                                 : 124 Kbps
Width                                    : 640 pixels
Height                                   : 480 pixels
Display aspect ratio                     : 4:3
Frame rate mode                          : Constant
Frame rate                               : 23.976 fps
Color space                              : YUV
Chroma subsampling                       : 4:2:0
Bit depth                                : 8 bits
Scan type                                : Progressive
Bits/(Pixel*Frame)                       : 0.017
Stream size                              : 21.8 MiB (55%)
Writing library                          : x264 core 93 r1542 5b86182

Audio
----------------------------------

ID                                       : 2
Format                                   : AAC
Format/Info                              : Advanced Audio Codec
Format profile                           : LC
Codec ID                                 : 40
Duration                                 : 24mn 39s
Bit rate mode                            : Variable
Bit rate                                 : 96.0 Kbps
Channel(s)                               : 2 channels
Channel positions                        : Front: L R
Sampling rate                            : 48.0 KHz
Compression mode                         : Lossy
Delay relative to video                  : 83ms
Stream size                              : 16.9 MiB (43%)


----------------------------------------------------------------------------------

Screenshots
----------------------------------------------------------------------------------
                 
http://img40.imageshack.us/img40/925/detectiveconan1.png
                 
http://img812.imageshack.us/img812/1508/detectiveconan2.png
                 
http://img607.imageshack.us/img607/4382/detectiveconan3.png
                 
http://img837.imageshack.us/img837/9124/detectiveconan4.png
                 
http://img29.imageshack.us/img29/9058/detectiveconan5.png
 

----------------------------------------------------------------------------------

Story
----------------------------------------------------------------------------------

Kudo Shinichi is a seventeen year-old high school detective whom people call the "Modern Sherlock Holmes." However, one night after a date with his childhood sweetheart, Ran, Shinichi witnessed an illegal trade and, caught off his guard, was knocked unconscious and fed a drug that was supposed to kill him... but he woke up and found himself shrunken to a seven year old. In order to track down the men who did this to him, Shinichi hid his identity and lived with Ran, whose father happened to be a hopeless detective, and with that came a series of murders and mysteries that he must solve.

----------------------------------------------------------------------------------

Thank you for downloading. 

Enjoy Watching :)				
								